<?xml version="1.0" encoding="UTF-8"?>
<!-- Generated by Pixelmator Pro 3.6.13 -->
<svg width="483" height="251" viewBox="0 0 483 251" xmlns="http://www.w3.org/2000/svg">
    <path id="XMLID-728-" fill="#000000" stroke="none" d="M 442.284576 184.867706 C 350.931824 217.227646 264.884369 205.589752 179.895279 162.416138 C 177.117508 164.120697 173.163681 166.300766 169.465439 168.8526 C 128.688019 196.982758 93.086868 196.944687 52.555565 168.244843 C 34.333679 155.34259 19.362001 139.194427 7.968891 119.966003 C 4.94951 114.869308 2.205441 109.146378 1.254429 103.393784 C -0.336513 93.769485 4.269948 89.644485 13.974315 92.489014 C 23.665031 126.847572 69.366364 165.415863 104.492981 168.883774 C 125.81842 170.989899 143.270615 162.194427 160.508636 148.531082 C 157.214645 144.328796 154.241776 141.004669 151.792374 137.33255 C 139.609589 119.063583 126.673241 101.207901 115.862358 82.152725 C 110.760933 73.159851 108.717552 61.955963 107.253899 51.480804 C 104.642036 32.784805 110.391533 17.045486 127.716064 7.179535 C 145.172455 -2.760773 167.135376 -1.367783 182.492874 10.876282 C 194.308304 20.295807 202.478165 32.387115 206.957458 46.847092 C 214.9487 72.643402 214.511795 98.226639 204.718445 123.521606 C 202.799164 128.480011 200.904312 133.446106 199.080246 138.196045 C 248.423187 182.006592 387.404724 188.760742 434.470062 159.744537 C 416.554504 149.401871 393.325378 152.40918 379.266815 136.222809 C 380.622467 127.020668 386.713531 126.769531 392.928009 127.891312 C 417.920776 132.402542 442.962006 136.730438 467.789673 142.039703 C 482.147919 145.110779 485.467712 152.342392 479.028809 165.33223 C 467.121613 189.355682 455.952393 213.50415 451.093323 240.217941 C 450.371246 244.188354 444.685059 247.255722 441.29538 250.740768 C 438.090973 247.066895 432.124908 243.349915 432.182556 239.72879 C 432.382202 227.221405 434.298584 214.68306 436.352356 202.289047 C 437.300293 196.569397 440.07962 191.152039 442.284576 184.867706 Z M 177.019775 125.671829 C 195.9198 99.774673 194.716736 56.023392 175.64241 35.223831 C 172.575012 31.877686 168.684799 28.943161 164.624908 26.924698 C 156.237396 22.754745 147.975052 24.167557 139.993698 28.871292 C 131.44957 33.905823 131.372116 42.055283 132.849258 49.908539 C 138.557663 80.264465 155.5047 103.925537 177.019775 125.671829 Z"/>
</svg>
