<svg width="0" height="0" class="hidden">
  <symbol xmlns="http://www.w3.org/2000/svg" fill="none" stroke-width="1.5" stroke="currentColor" viewBox="0 0 24 24" id="arrow-down-left">
    <path stroke-linecap="round" stroke-linejoin="round" d="m19.5 4.5-15 15m0 0h11.25m-11.25 0V8.25"></path>
  </symbol>
  <symbol xmlns="http://www.w3.org/2000/svg" fill="none" stroke-width="1.5" stroke="currentColor" viewBox="0 0 24 24" id="arrow-down">
    <path stroke-linecap="round" stroke-linejoin="round" d="M19.5 13.5 12 21m0 0-7.5-7.5M12 21V3"></path>
  </symbol>
  <symbol xmlns="http://www.w3.org/2000/svg" fill="none" stroke-width="1.5" stroke="currentColor" viewBox="0 0 24 24" id="arrow-left">
    <path stroke-linecap="round" stroke-linejoin="round" d="M10.5 19.5 3 12m0 0 7.5-7.5M3 12h18"></path>
  </symbol>
  <symbol xmlns="http://www.w3.org/2000/svg" fill="none" stroke-width="1.5" stroke="currentColor" viewBox="0 0 24 24" id="arrow-right">
    <path stroke-linecap="round" stroke-linejoin="round" d="M13.5 4.5 21 12m0 0-7.5 7.5M21 12H3"></path>
  </symbol>
  <symbol xmlns="http://www.w3.org/2000/svg" fill="none" stroke-width="1.5" stroke="currentColor" viewBox="0 0 24 24" id="arrow-up-left">
    <path stroke-linecap="round" stroke-linejoin="round" d="m19.5 19.5-15-15m0 0v11.25m0-11.25h11.25"></path>
  </symbol>
  <symbol xmlns="http://www.w3.org/2000/svg" fill="none" stroke-width="1.5" stroke="currentColor" viewBox="0 0 24 24" id="arrow-up-right">
    <path stroke-linecap="round" stroke-linejoin="round" d="m4.5 19.5 15-15m0 0H8.25m11.25 0v11.25"></path>
  </symbol>
  <symbol xmlns="http://www.w3.org/2000/svg" fill="none" stroke-width="1.5" stroke="currentColor" viewBox="0 0 24 24" id="arrow-up">
    <path stroke-linecap="round" stroke-linejoin="round" d="M4.5 10.5 12 3m0 0 7.5 7.5M12 3v18"></path>
  </symbol>
  <symbol xmlns="http://www.w3.org/2000/svg" fill="none" stroke-width="1.5" stroke="currentColor" viewBox="0 0 24 24" id="at-symbol">
    <path stroke-linecap="round" stroke-linejoin="round" d="M16.5 12a4.5 4.5 0 1 1-9 0 4.5 4.5 0 0 1 9 0Zm0 0c0 1.657 1.007 3 2.25 3S21 13.657 21 12a9 9 0 1 0-2.636 6.364M16.5 12V8.25"></path>
  </symbol>
  <symbol xmlns="http://www.w3.org/2000/svg" fill="none" stroke-width="1.5" stroke="currentColor" viewBox="0 0 24 24" id="bars-3">
    <path stroke-linecap="round" stroke-linejoin="round" d="M3.75 6.75h16.5M3.75 12h16.5m-16.5 5.25h16.5"></path>
  </symbol>
  <symbol xmlns="http://www.w3.org/2000/svg" fill="none" stroke-width="1.5" stroke="currentColor" viewBox="0 0 24 24" id="map-pin">
    <path stroke-linecap="round" stroke-linejoin="round" d="M15 10.5a3 3 0 1 1-6 0 3 3 0 0 1 6 0Z"></path>
    <path stroke-linecap="round" stroke-linejoin="round" d="M19.5 10.5c0 7.142-7.5 11.25-7.5 11.25S4.5 17.642 4.5 10.5a7.5 7.5 0 1 1 15 0Z"></path>
  </symbol>
  <symbol xmlns="http://www.w3.org/2000/svg" fill="none" stroke-width="1.5" stroke="currentColor" viewBox="0 0 24 24" id="phone">
    <path stroke-linecap="round" stroke-linejoin="round" d="M2.25 6.75c0 8.284 6.716 15 15 15h2.25a2.25 2.25 0 0 0 2.25-2.25v-1.372c0-.516-.351-.966-.852-1.091l-4.423-1.106c-.44-.11-.902.055-1.173.417l-.97 1.293c-.282.376-.769.542-1.21.38a12.035 12.035 0 0 1-7.143-7.143c-.162-.441.004-.928.38-1.21l1.293-.97c.363-.271.527-.734.417-1.173L6.963 3.102a1.125 1.125 0 0 0-1.091-.852H4.5A2.25 2.25 0 0 0 2.25 4.5v2.25Z"></path>
  </symbol>
  <symbol xmlns="http://www.w3.org/2000/svg" fill="none" stroke-width="1.5" stroke="currentColor" viewBox="0 0 24 24" id="user">
    <path stroke-linecap="round" stroke-linejoin="round" d="M15.75 6a3.75 3.75 0 1 1-7.5 0 3.75 3.75 0 0 1 7.5 0ZM4.501 20.118a7.5 7.5 0 0 1 14.998 0A17.933 17.933 0 0 1 12 21.75c-2.676 0-5.216-.584-7.499-1.632Z"></path>
  </symbol>
  <symbol xmlns="http://www.w3.org/2000/svg" fill="none" stroke-width="1.5" stroke="currentColor" viewBox="0 0 24 24" id="x-mark">
    <path stroke-linecap="round" stroke-linejoin="round" d="M6 18 18 6M6 6l12 12"></path>
  </symbol>
</svg>