<svg xmlns="http://www.w3.org/2000/svg" xmlns:xlink="http://www.w3.org/1999/xlink" width="500" zoomAndPan="magnify" viewBox="0 0 375 374.999991" height="500" preserveAspectRatio="xMidYMid meet" version="1.0"><defs><g/><clipPath id="fb1488f6e9"><path d="M 115 220 L 128 220 L 128 257.988281 L 115 257.988281 Z M 115 220 " clip-rule="nonzero"/></clipPath><clipPath id="d7bc02f894"><path d="M 61.652344 187 L 101 187 L 101 192 L 61.652344 192 Z M 61.652344 187 " clip-rule="nonzero"/></clipPath></defs><g fill="#181818" fill-opacity="1"><g transform="translate(111.595625, 203.999987)"><g><path d="M 15.9375 -15.125 L 15.9375 -1.34375 L 19.171875 -0.546875 L 19.171875 0 L 8.09375 0 L 8.09375 -0.546875 L 11.34375 -1.34375 L 11.34375 -14.84375 L 2.96875 -36.453125 L -0.265625 -37.265625 L -0.265625 -37.796875 L 11.0625 -37.796875 L 11.0625 -37.265625 L 7.828125 -36.453125 L 15.5 -16.734375 L 22.953125 -35.90625 L 19.4375 -37.265625 L 19.4375 -37.796875 L 27.546875 -37.796875 L 27.546875 -37.265625 L 24.03125 -35.90625 Z M 15.9375 -15.125 "/></g></g></g><g fill="#181818" fill-opacity="1"><g transform="translate(138.055634, 203.999987)"><g><path d="M 12.6875 -24.84375 C 12.070312 -24.84375 11.445312 -24.632812 10.8125 -24.21875 C 10.1875 -23.800781 9.613281 -23.113281 9.09375 -22.15625 C 8.570312 -21.207031 8.140625 -19.941406 7.796875 -18.359375 C 7.460938 -16.773438 7.296875 -14.796875 7.296875 -12.421875 C 7.296875 -10.046875 7.460938 -8.066406 7.796875 -6.484375 C 8.140625 -4.898438 8.570312 -3.628906 9.09375 -2.671875 C 9.613281 -1.710938 10.1875 -1.023438 10.8125 -0.609375 C 11.445312 -0.203125 12.070312 0 12.6875 0 C 13.300781 0 13.921875 -0.203125 14.546875 -0.609375 C 15.179688 -1.023438 15.757812 -1.710938 16.28125 -2.671875 C 16.800781 -3.628906 17.234375 -4.898438 17.578125 -6.484375 C 17.921875 -8.066406 18.09375 -10.046875 18.09375 -12.421875 C 18.09375 -14.796875 17.921875 -16.773438 17.578125 -18.359375 C 17.234375 -19.941406 16.800781 -21.207031 16.28125 -22.15625 C 15.757812 -23.113281 15.179688 -23.800781 14.546875 -24.21875 C 13.921875 -24.632812 13.300781 -24.84375 12.6875 -24.84375 Z M 12.6875 -25.65625 C 14.019531 -25.65625 15.304688 -25.359375 16.546875 -24.765625 C 17.785156 -24.171875 18.882812 -23.304688 19.84375 -22.171875 C 20.800781 -21.035156 21.554688 -19.644531 22.109375 -18 C 22.671875 -16.363281 22.953125 -14.503906 22.953125 -12.421875 C 22.953125 -10.328125 22.671875 -8.460938 22.109375 -6.828125 C 21.554688 -5.191406 20.800781 -3.804688 19.84375 -2.671875 C 18.882812 -1.535156 17.785156 -0.671875 16.546875 -0.078125 C 15.304688 0.515625 14.019531 0.8125 12.6875 0.8125 C 11.320312 0.8125 10.023438 0.515625 8.796875 -0.078125 C 7.578125 -0.671875 6.488281 -1.535156 5.53125 -2.671875 C 4.582031 -3.804688 3.828125 -5.191406 3.265625 -6.828125 C 2.710938 -8.460938 2.4375 -10.328125 2.4375 -12.421875 C 2.4375 -14.503906 2.710938 -16.363281 3.265625 -18 C 3.828125 -19.644531 4.582031 -21.035156 5.53125 -22.171875 C 6.488281 -23.304688 7.578125 -24.171875 8.796875 -24.765625 C 10.023438 -25.359375 11.320312 -25.65625 12.6875 -25.65625 Z M 12.6875 -25.65625 "/></g></g></g><g fill="#181818" fill-opacity="1"><g transform="translate(163.435641, 203.999987)"><g><path d="M 11.875 -8.09375 C 12.488281 -8.09375 13.082031 -8.242188 13.65625 -8.546875 C 14.238281 -8.859375 14.765625 -9.351562 15.234375 -10.03125 C 15.703125 -10.71875 16.066406 -11.59375 16.328125 -12.65625 C 16.597656 -13.71875 16.734375 -14.988281 16.734375 -16.46875 C 16.734375 -17.945312 16.597656 -19.21875 16.328125 -20.28125 C 16.066406 -21.34375 15.703125 -22.207031 15.234375 -22.875 C 14.765625 -23.539062 14.238281 -24.035156 13.65625 -24.359375 C 13.082031 -24.679688 12.488281 -24.84375 11.875 -24.84375 C 11.269531 -24.84375 10.675781 -24.679688 10.09375 -24.359375 C 9.519531 -24.035156 9 -23.539062 8.53125 -22.875 C 8.0625 -22.207031 7.691406 -21.34375 7.421875 -20.28125 C 7.148438 -19.21875 7.015625 -17.945312 7.015625 -16.46875 C 7.015625 -14.988281 7.148438 -13.71875 7.421875 -12.65625 C 7.691406 -11.59375 8.0625 -10.71875 8.53125 -10.03125 C 9 -9.351562 9.519531 -8.859375 10.09375 -8.546875 C 10.675781 -8.242188 11.269531 -8.09375 11.875 -8.09375 Z M 12.953125 12.75 C 14.285156 12.75 15.492188 12.554688 16.578125 12.171875 C 17.660156 11.796875 18.566406 11.285156 19.296875 10.640625 C 20.035156 9.992188 20.601562 9.238281 21 8.375 C 21.394531 7.507812 21.59375 6.609375 21.59375 5.671875 C 21.59375 2.253906 19.882812 0.546875 16.46875 0.546875 L 7.828125 0.546875 C 5.773438 0.546875 4.269531 0.132812 3.3125 -0.6875 C 2.363281 -1.519531 1.890625 -2.550781 1.890625 -3.78125 C 1.890625 -4.601562 2.09375 -5.328125 2.5 -5.953125 C 2.914062 -6.585938 3.378906 -7.160156 3.890625 -7.671875 C 4.503906 -8.210938 5.1875 -8.71875 5.9375 -9.1875 C 5.21875 -9.644531 4.585938 -10.21875 4.046875 -10.90625 C 3.546875 -11.519531 3.101562 -12.273438 2.71875 -13.171875 C 2.34375 -14.078125 2.15625 -15.175781 2.15625 -16.46875 C 2.15625 -17.757812 2.398438 -18.960938 2.890625 -20.078125 C 3.378906 -21.203125 4.050781 -22.175781 4.90625 -23 C 5.769531 -23.832031 6.796875 -24.484375 7.984375 -24.953125 C 9.179688 -25.421875 10.476562 -25.65625 11.875 -25.65625 C 12.488281 -25.65625 13.082031 -25.597656 13.65625 -25.484375 C 14.238281 -25.378906 14.765625 -25.253906 15.234375 -25.109375 C 15.765625 -24.960938 16.265625 -24.78125 16.734375 -24.5625 C 17.023438 -24.957031 17.367188 -25.320312 17.765625 -25.65625 C 18.128906 -25.9375 18.578125 -26.1875 19.109375 -26.40625 C 19.648438 -26.625 20.300781 -26.734375 21.0625 -26.734375 C 22.28125 -26.734375 23.238281 -26.503906 23.9375 -26.046875 C 24.644531 -25.597656 25.195312 -25.101562 25.59375 -24.5625 C 26.03125 -23.914062 26.316406 -23.195312 26.453125 -22.40625 L 22.40625 -21.59375 C 22.300781 -22.320312 22.140625 -22.988281 21.921875 -23.59375 C 21.742188 -24.101562 21.492188 -24.570312 21.171875 -25 C 20.847656 -25.4375 20.453125 -25.65625 19.984375 -25.65625 C 19.585938 -25.65625 19.222656 -25.5625 18.890625 -25.375 C 18.566406 -25.195312 18.316406 -25.019531 18.140625 -24.84375 C 17.890625 -24.59375 17.691406 -24.320312 17.546875 -24.03125 C 18.921875 -23.195312 19.9375 -22.132812 20.59375 -20.84375 C 21.257812 -19.550781 21.59375 -18.09375 21.59375 -16.46875 C 21.59375 -15.175781 21.347656 -13.96875 20.859375 -12.84375 C 20.378906 -11.726562 19.707031 -10.753906 18.84375 -9.921875 C 17.976562 -9.097656 16.953125 -8.453125 15.765625 -7.984375 C 14.578125 -7.523438 13.28125 -7.296875 11.875 -7.296875 C 11.125 -7.296875 10.441406 -7.359375 9.828125 -7.484375 C 9.210938 -7.609375 8.671875 -7.757812 8.203125 -7.9375 C 7.660156 -8.113281 7.175781 -8.347656 6.75 -8.640625 C 6.25 -8.316406 5.800781 -7.972656 5.40625 -7.609375 C 5.039062 -7.328125 4.722656 -6.988281 4.453125 -6.59375 C 4.179688 -6.195312 4.046875 -5.800781 4.046875 -5.40625 C 4.046875 -4.863281 4.296875 -4.421875 4.796875 -4.078125 C 5.304688 -3.734375 6.316406 -3.5625 7.828125 -3.5625 L 16.46875 -3.5625 C 18.625 -3.5625 20.378906 -2.867188 21.734375 -1.484375 C 23.085938 -0.0976562 23.765625 1.742188 23.765625 4.046875 C 23.765625 5.421875 23.5 6.691406 22.96875 7.859375 C 22.445312 9.023438 21.71875 10.050781 20.78125 10.9375 C 19.851562 11.820312 18.722656 12.515625 17.390625 13.015625 C 16.054688 13.515625 14.578125 13.765625 12.953125 13.765625 C 10.941406 13.765625 9.1875 13.539062 7.6875 13.09375 C 6.195312 12.644531 4.960938 12.03125 3.984375 11.25 C 3.015625 10.476562 2.285156 9.570312 1.796875 8.53125 C 1.316406 7.488281 1.078125 6.351562 1.078125 5.125 C 1.078125 4.65625 1.128906 4.234375 1.234375 3.859375 C 1.347656 3.484375 1.476562 3.171875 1.625 2.921875 C 1.769531 2.628906 1.945312 2.375 2.15625 2.15625 L 6.203125 3.78125 C 6.097656 4.03125 6.007812 4.300781 5.9375 4.59375 C 5.757812 5.132812 5.671875 5.671875 5.671875 6.203125 C 5.671875 8.117188 6.304688 9.6875 7.578125 10.90625 C 8.859375 12.132812 10.648438 12.75 12.953125 12.75 Z M 12.953125 12.75 "/></g></g></g><g fill="#181818" fill-opacity="1"><g transform="translate(189.625649, 203.999987)"><g><path d="M 16.203125 -13.234375 C 13.066406 -13.234375 10.75 -12.539062 9.25 -11.15625 C 7.757812 -9.769531 7.015625 -7.851562 7.015625 -5.40625 C 7.015625 -3.78125 7.410156 -2.515625 8.203125 -1.609375 C 8.992188 -0.710938 9.859375 -0.265625 10.796875 -0.265625 C 11.660156 -0.265625 12.425781 -0.515625 13.09375 -1.015625 C 13.757812 -1.523438 14.328125 -2.085938 14.796875 -2.703125 C 15.335938 -3.378906 15.804688 -4.1875 16.203125 -5.125 Z M 12.15625 -24.84375 C 11.070312 -24.84375 10.171875 -24.472656 9.453125 -23.734375 C 8.734375 -22.992188 8.375 -22.015625 8.375 -20.796875 C 8.375 -20.503906 8.378906 -20.25 8.390625 -20.03125 C 8.410156 -19.8125 8.441406 -19.613281 8.484375 -19.4375 C 8.515625 -19.257812 8.566406 -19.082031 8.640625 -18.90625 L 4.3125 -17.8125 C 4.25 -17.925781 4.195312 -18.070312 4.15625 -18.25 C 4.125 -18.425781 4.097656 -18.625 4.078125 -18.84375 C 4.054688 -19.0625 4.046875 -19.347656 4.046875 -19.703125 C 4.046875 -20.460938 4.222656 -21.191406 4.578125 -21.890625 C 4.941406 -22.597656 5.472656 -23.226562 6.171875 -23.78125 C 6.878906 -24.34375 7.726562 -24.796875 8.71875 -25.140625 C 9.707031 -25.484375 10.851562 -25.65625 12.15625 -25.65625 C 14.738281 -25.65625 16.773438 -24.914062 18.265625 -23.4375 C 19.765625 -21.957031 20.515625 -19.992188 20.515625 -17.546875 L 20.515625 -1.34375 L 23.765625 -0.546875 L 23.765625 0 L 16.203125 0 L 16.203125 -3.234375 C 15.804688 -2.484375 15.300781 -1.800781 14.6875 -1.1875 C 14.1875 -0.6875 13.546875 -0.226562 12.765625 0.1875 C 11.992188 0.601562 11.066406 0.8125 9.984375 0.8125 C 7.398438 0.8125 5.445312 0.203125 4.125 -1.015625 C 2.8125 -2.242188 2.15625 -3.882812 2.15625 -5.9375 C 2.15625 -6.945312 2.429688 -7.953125 2.984375 -8.953125 C 3.546875 -9.960938 4.394531 -10.863281 5.53125 -11.65625 C 6.664062 -12.457031 8.113281 -13.097656 9.875 -13.578125 C 11.644531 -14.066406 13.753906 -14.3125 16.203125 -14.3125 L 16.203125 -17.546875 C 16.203125 -20.242188 15.796875 -22.132812 14.984375 -23.21875 C 14.171875 -24.300781 13.226562 -24.84375 12.15625 -24.84375 Z M 12.15625 -24.84375 "/></g></g></g><g fill="#bc6d61" fill-opacity="1"><g transform="translate(214.74406, 203.999987)"><g><path d="M 19.4375 -33.203125 C 19.4375 -32.597656 19.335938 -32.050781 19.140625 -31.5625 C 18.941406 -31.070312 18.71875 -30.648438 18.46875 -30.296875 C 18.175781 -29.898438 17.867188 -29.519531 17.546875 -29.15625 L 13.5 -30.78125 C 13.820312 -31.132812 14.128906 -31.507812 14.421875 -31.90625 C 14.671875 -32.269531 14.894531 -32.691406 15.09375 -33.171875 C 15.289062 -33.660156 15.390625 -34.210938 15.390625 -34.828125 C 15.390625 -35.765625 15.144531 -36.492188 14.65625 -37.015625 C 14.175781 -37.535156 13.519531 -37.796875 12.6875 -37.796875 C 12.289062 -37.796875 11.910156 -37.695312 11.546875 -37.5 C 11.191406 -37.300781 10.878906 -36.957031 10.609375 -36.46875 C 10.335938 -35.988281 10.117188 -35.332031 9.953125 -34.5 C 9.796875 -33.675781 9.71875 -32.613281 9.71875 -31.3125 L 9.71875 -24.84375 L 17.28125 -24.84375 L 17.28125 -23.765625 L 9.71875 -23.765625 L 9.71875 -1.34375 L 12.953125 -0.546875 L 12.953125 0 L 2.15625 0 L 2.15625 -0.546875 L 5.40625 -1.34375 L 5.40625 -23.765625 L 2.15625 -23.765625 L 2.15625 -24.84375 L 5.40625 -24.84375 L 5.40625 -31.3125 C 5.40625 -33.476562 6.078125 -35.234375 7.421875 -36.578125 C 8.773438 -37.929688 10.53125 -38.609375 12.6875 -38.609375 C 13.695312 -38.609375 14.613281 -38.453125 15.4375 -38.140625 C 16.269531 -37.835938 16.984375 -37.4375 17.578125 -36.9375 C 18.171875 -36.4375 18.628906 -35.859375 18.953125 -35.203125 C 19.273438 -34.554688 19.4375 -33.890625 19.4375 -33.203125 Z M 19.4375 -33.203125 "/></g></g></g><g fill="#bc6d61" fill-opacity="1"><g transform="translate(232.564066, 203.999987)"><g><path d="M 4.859375 -1.34375 L 4.859375 -36.453125 L 1.625 -37.265625 L 1.625 -37.796875 L 9.1875 -37.796875 L 9.1875 -1.34375 L 12.421875 -0.546875 L 12.421875 0 L 1.625 0 L 1.625 -0.546875 Z M 4.859375 -1.34375 "/></g></g></g><g fill="#bc6d61" fill-opacity="1"><g transform="translate(246.334066, 203.999987)"><g><path d="M 12.6875 -24.84375 C 12.070312 -24.84375 11.445312 -24.632812 10.8125 -24.21875 C 10.1875 -23.800781 9.613281 -23.113281 9.09375 -22.15625 C 8.570312 -21.207031 8.140625 -19.941406 7.796875 -18.359375 C 7.460938 -16.773438 7.296875 -14.796875 7.296875 -12.421875 C 7.296875 -10.046875 7.460938 -8.066406 7.796875 -6.484375 C 8.140625 -4.898438 8.570312 -3.628906 9.09375 -2.671875 C 9.613281 -1.710938 10.1875 -1.023438 10.8125 -0.609375 C 11.445312 -0.203125 12.070312 0 12.6875 0 C 13.300781 0 13.921875 -0.203125 14.546875 -0.609375 C 15.179688 -1.023438 15.757812 -1.710938 16.28125 -2.671875 C 16.800781 -3.628906 17.234375 -4.898438 17.578125 -6.484375 C 17.921875 -8.066406 18.09375 -10.046875 18.09375 -12.421875 C 18.09375 -14.796875 17.921875 -16.773438 17.578125 -18.359375 C 17.234375 -19.941406 16.800781 -21.207031 16.28125 -22.15625 C 15.757812 -23.113281 15.179688 -23.800781 14.546875 -24.21875 C 13.921875 -24.632812 13.300781 -24.84375 12.6875 -24.84375 Z M 12.6875 -25.65625 C 14.019531 -25.65625 15.304688 -25.359375 16.546875 -24.765625 C 17.785156 -24.171875 18.882812 -23.304688 19.84375 -22.171875 C 20.800781 -21.035156 21.554688 -19.644531 22.109375 -18 C 22.671875 -16.363281 22.953125 -14.503906 22.953125 -12.421875 C 22.953125 -10.328125 22.671875 -8.460938 22.109375 -6.828125 C 21.554688 -5.191406 20.800781 -3.804688 19.84375 -2.671875 C 18.882812 -1.535156 17.785156 -0.671875 16.546875 -0.078125 C 15.304688 0.515625 14.019531 0.8125 12.6875 0.8125 C 11.320312 0.8125 10.023438 0.515625 8.796875 -0.078125 C 7.578125 -0.671875 6.488281 -1.535156 5.53125 -2.671875 C 4.582031 -3.804688 3.828125 -5.191406 3.265625 -6.828125 C 2.710938 -8.460938 2.4375 -10.328125 2.4375 -12.421875 C 2.4375 -14.503906 2.710938 -16.363281 3.265625 -18 C 3.828125 -19.644531 4.582031 -21.035156 5.53125 -22.171875 C 6.488281 -23.304688 7.578125 -24.171875 8.796875 -24.765625 C 10.023438 -25.359375 11.320312 -25.65625 12.6875 -25.65625 Z M 12.6875 -25.65625 "/></g></g></g><g fill="#bc6d61" fill-opacity="1"><g transform="translate(271.714073, 203.999987)"><g><path d="M 2.703125 -23.484375 L -0.546875 -24.296875 L -0.546875 -24.84375 L 10.265625 -24.84375 L 10.265625 -24.296875 L 7.296875 -23.484375 L 14.09375 -5.9375 L 19.703125 -22.953125 L 16.203125 -24.296875 L 16.203125 -24.84375 L 24.296875 -24.84375 L 24.296875 -24.296875 L 20.796875 -22.953125 L 12.953125 0.8125 L 12.15625 0.8125 Z M 2.703125 -23.484375 "/></g></g></g><path fill="#bc6d61" d="M 73.933594 177.847656 C 73.808594 177.84375 73.699219 177.882812 73.605469 177.964844 C 73.511719 178.046875 73.457031 178.152344 73.445312 178.277344 C 73.433594 178.402344 73.464844 178.511719 73.542969 178.613281 C 73.621094 178.710938 73.722656 178.769531 73.84375 178.789062 L 99.996094 181.28125 L 100.042969 181.28125 C 100.167969 181.28125 100.273438 181.238281 100.363281 181.148438 C 100.453125 181.0625 100.503906 180.957031 100.507812 180.832031 C 100.515625 180.707031 100.476562 180.59375 100.394531 180.5 C 100.3125 180.402344 100.210938 180.347656 100.085938 180.335938 Z M 73.933594 177.847656 " fill-opacity="1" fill-rule="nonzero"/><path fill="#bc6d61" d="M 109.035156 208.714844 C 109.054688 208.503906 108.96875 208.351562 108.78125 208.25 C 108.59375 208.152344 108.417969 208.171875 108.257812 208.308594 L 88.035156 225.007812 C 87.867188 225.148438 87.820312 225.324219 87.890625 225.53125 C 87.964844 225.738281 88.113281 225.84375 88.335938 225.847656 C 88.445312 225.84375 88.546875 225.808594 88.632812 225.738281 L 108.855469 209.039062 C 108.960938 208.957031 109.019531 208.847656 109.035156 208.714844 Z M 109.035156 208.714844 " fill-opacity="1" fill-rule="nonzero"/><path fill="#bc6d61" d="M 113.386719 155.453125 C 113.472656 155.542969 113.574219 155.589844 113.699219 155.597656 C 113.824219 155.605469 113.933594 155.570312 114.03125 155.492188 C 114.125 155.414062 114.183594 155.3125 114.199219 155.191406 C 114.21875 155.070312 114.191406 154.957031 114.121094 154.855469 L 97.285156 134.484375 C 97.207031 134.367188 97.101562 134.296875 96.960938 134.273438 C 96.820312 134.253906 96.695312 134.285156 96.585938 134.375 C 96.476562 134.464844 96.421875 134.578125 96.414062 134.71875 C 96.40625 134.863281 96.453125 134.980469 96.554688 135.082031 Z M 113.386719 155.453125 " fill-opacity="1" fill-rule="nonzero"/><path fill="#bc6d61" d="M 101.605469 194.769531 C 101.488281 194.707031 101.367188 194.695312 101.242188 194.734375 L 76.109375 202.140625 C 75.996094 202.175781 75.910156 202.242188 75.84375 202.339844 C 75.78125 202.441406 75.761719 202.546875 75.777344 202.664062 C 75.792969 202.78125 75.847656 202.875 75.933594 202.953125 C 76.023438 203.03125 76.125 203.070312 76.242188 203.070312 C 76.289062 203.070312 76.332031 203.066406 76.375 203.050781 L 101.511719 195.648438 C 101.714844 195.585938 101.832031 195.453125 101.851562 195.238281 C 101.875 195.027344 101.792969 194.871094 101.605469 194.769531 Z M 101.605469 194.769531 " fill-opacity="1" fill-rule="nonzero"/><path fill="#bc6d61" d="M 120.15625 122.449219 C 120.117188 122.324219 120.042969 122.230469 119.929688 122.167969 C 119.8125 122.105469 119.691406 122.09375 119.566406 122.132812 C 119.4375 122.167969 119.339844 122.242188 119.277344 122.363281 C 119.214844 122.480469 119.203125 122.601562 119.242188 122.730469 L 126.714844 148.074219 C 126.785156 148.300781 126.9375 148.414062 127.171875 148.417969 C 127.21875 148.417969 127.261719 148.410156 127.308594 148.398438 C 127.433594 148.359375 127.53125 148.285156 127.59375 148.167969 C 127.65625 148.050781 127.667969 147.925781 127.625 147.800781 Z M 120.15625 122.449219 " fill-opacity="1" fill-rule="nonzero"/><path fill="#bc6d61" d="M 104.785156 165.828125 L 81.40625 153.097656 C 81.292969 153.03125 81.171875 153.019531 81.046875 153.058594 C 80.917969 153.09375 80.824219 153.167969 80.761719 153.285156 C 80.699219 153.402344 80.683594 153.519531 80.722656 153.648438 C 80.761719 153.773438 80.835938 153.867188 80.953125 153.929688 L 104.324219 166.664062 C 104.394531 166.703125 104.46875 166.722656 104.550781 166.722656 C 104.738281 166.722656 104.878906 166.640625 104.964844 166.472656 C 105.03125 166.359375 105.042969 166.238281 105.003906 166.113281 C 104.972656 165.988281 104.898438 165.894531 104.785156 165.828125 Z M 104.785156 165.828125 " fill-opacity="1" fill-rule="nonzero"/><path fill="#bc6d61" d="M 120.257812 217.570312 C 120.199219 217.367188 120.0625 217.253906 119.855469 217.230469 C 119.644531 217.207031 119.488281 217.289062 119.386719 217.476562 L 106.691406 240.789062 C 106.625 240.902344 106.613281 241.023438 106.652344 241.148438 C 106.71875 241.375 106.871094 241.488281 107.105469 241.488281 C 107.292969 241.488281 107.433594 241.40625 107.523438 241.242188 L 120.21875 217.929688 C 120.285156 217.816406 120.296875 217.695312 120.257812 217.570312 Z M 120.257812 217.570312 " fill-opacity="1" fill-rule="nonzero"/><g clip-path="url(#fb1488f6e9)"><path fill="#bc6d61" d="M 127.191406 220.210938 C 127.0625 220.171875 126.941406 220.183594 126.824219 220.246094 C 126.707031 220.308594 126.628906 220.402344 126.59375 220.53125 L 115.617188 257.152344 C 115.578125 257.28125 115.589844 257.402344 115.652344 257.519531 C 115.714844 257.636719 115.808594 257.714844 115.9375 257.75 C 115.980469 257.765625 116.027344 257.773438 116.074219 257.773438 C 116.308594 257.773438 116.460938 257.660156 116.53125 257.433594 L 127.511719 220.808594 C 127.546875 220.683594 127.535156 220.558594 127.472656 220.441406 C 127.410156 220.328125 127.316406 220.25 127.191406 220.210938 Z M 127.191406 220.210938 " fill-opacity="1" fill-rule="nonzero"/></g><path fill="#bc6d61" d="M 64.914062 163.027344 L 101.378906 173.960938 C 101.421875 173.972656 101.46875 173.980469 101.515625 173.980469 C 101.632812 173.976562 101.734375 173.941406 101.824219 173.863281 C 101.914062 173.785156 101.964844 173.6875 101.984375 173.574219 C 102 173.457031 101.976562 173.347656 101.914062 173.25 C 101.851562 173.152344 101.765625 173.082031 101.652344 173.050781 L 65.191406 162.121094 C 65.0625 162.078125 64.941406 162.089844 64.824219 162.152344 C 64.707031 162.214844 64.628906 162.308594 64.59375 162.4375 C 64.554688 162.5625 64.566406 162.683594 64.632812 162.800781 C 64.695312 162.917969 64.789062 162.992188 64.914062 163.027344 Z M 64.914062 163.027344 " fill-opacity="1" fill-rule="nonzero"/><path fill="#bc6d61" d="M 104.863281 202.625 C 104.902344 202.5 104.890625 202.378906 104.824219 202.265625 C 104.765625 202.148438 104.671875 202.070312 104.542969 202.035156 C 104.417969 201.996094 104.296875 202.007812 104.183594 202.074219 L 70.710938 220.097656 C 70.488281 220.214844 70.40625 220.390625 70.46875 220.636719 C 70.53125 220.878906 70.6875 220.996094 70.9375 220.992188 C 71.015625 220.992188 71.089844 220.972656 71.160156 220.9375 L 104.632812 202.910156 C 104.75 202.847656 104.828125 202.753906 104.863281 202.625 Z M 104.863281 202.625 " fill-opacity="1" fill-rule="nonzero"/><path fill="#bc6d61" d="M 119.488281 151.21875 C 119.578125 151.386719 119.71875 151.46875 119.90625 151.46875 C 119.988281 151.46875 120.0625 151.449219 120.132812 151.410156 C 120.246094 151.351562 120.324219 151.257812 120.359375 151.128906 C 120.398438 151.003906 120.386719 150.882812 120.324219 150.769531 L 102.261719 117.21875 C 102.199219 117.105469 102.105469 117.027344 101.980469 116.988281 C 101.851562 116.953125 101.730469 116.964844 101.617188 117.03125 C 101.5 117.089844 101.425781 117.183594 101.386719 117.3125 C 101.347656 117.4375 101.363281 117.558594 101.425781 117.671875 Z M 119.488281 151.21875 " fill-opacity="1" fill-rule="nonzero"/><g clip-path="url(#d7bc02f894)"><path fill="#bc6d61" d="M 100.398438 188.15625 C 100.535156 187.996094 100.554688 187.820312 100.453125 187.632812 C 100.355469 187.445312 100.199219 187.359375 99.988281 187.378906 L 62.113281 190.808594 C 61.984375 190.8125 61.875 190.867188 61.785156 190.960938 C 61.695312 191.058594 61.65625 191.171875 61.660156 191.304688 C 61.667969 191.433594 61.71875 191.546875 61.816406 191.632812 C 61.910156 191.722656 62.023438 191.765625 62.15625 191.757812 L 62.199219 191.757812 L 100.078125 188.328125 C 100.210938 188.316406 100.316406 188.261719 100.398438 188.15625 Z M 100.398438 188.15625 " fill-opacity="1" fill-rule="nonzero"/></g><path fill="#bc6d61" d="M 131.53125 108.613281 C 131.523438 108.484375 131.464844 108.375 131.367188 108.289062 C 131.265625 108.207031 131.148438 108.171875 131.019531 108.183594 C 130.886719 108.191406 130.777344 108.246094 130.695312 108.351562 C 130.613281 108.449219 130.574219 108.566406 130.589844 108.695312 L 134.007812 146.421875 C 134.019531 146.542969 134.070312 146.644531 134.160156 146.730469 C 134.253906 146.8125 134.359375 146.851562 134.484375 146.851562 L 134.523438 146.851562 C 134.65625 146.839844 134.761719 146.785156 134.847656 146.6875 C 134.933594 146.585938 134.96875 146.46875 134.953125 146.335938 Z M 131.53125 108.613281 " fill-opacity="1" fill-rule="nonzero"/><path fill="#bc6d61" d="M 108.496094 160.503906 C 108.582031 160.574219 108.683594 160.609375 108.792969 160.613281 C 108.945312 160.613281 109.066406 160.554688 109.160156 160.441406 C 109.242188 160.339844 109.277344 160.222656 109.265625 160.09375 C 109.253906 159.960938 109.199219 159.855469 109.101562 159.769531 L 79.800781 135.335938 C 79.699219 135.269531 79.589844 135.25 79.472656 135.269531 C 79.355469 135.289062 79.257812 135.34375 79.179688 135.4375 C 79.105469 135.527344 79.070312 135.636719 79.074219 135.753906 C 79.078125 135.875 79.121094 135.976562 79.203125 136.0625 Z M 108.496094 160.503906 " fill-opacity="1" fill-rule="nonzero"/><path fill="#bc6d61" d="M 113.921875 213.203125 C 113.820312 213.117188 113.703125 213.082031 113.574219 213.09375 C 113.441406 213.105469 113.335938 213.164062 113.25 213.261719 L 88.832031 242.550781 C 88.769531 242.652344 88.746094 242.761719 88.765625 242.878906 C 88.785156 243 88.84375 243.09375 88.933594 243.171875 C 89.027344 243.246094 89.132812 243.285156 89.253906 243.277344 C 89.371094 243.273438 89.476562 243.230469 89.5625 243.148438 L 113.980469 213.859375 C 114.058594 213.761719 114.09375 213.644531 114.082031 213.519531 C 114.070312 213.390625 114.015625 213.285156 113.921875 213.203125 Z M 113.921875 213.203125 " fill-opacity="1" fill-rule="nonzero"/></svg>